<svg id="Layer_1" data-name="Layer 1" xmlns="http://www.w3.org/2000/svg" viewBox="0 0 1598.33 418.28"><defs><style>.cls-1{fill:#fff;}</style></defs><path class="cls-1" d="M2302.56,2080.24c-25.67-1.82-50.8-4-75.53-6.55-196-20.15-369.13-63.76-514.58-129.62-29.46-13.33-51.94-26.28-68.71-39.57-22.11-17.51-34.63-36.06-37.24-55.16-3.49-25.59,11.43-52.24,40.94-73.1,26.15-18.49,60-30.36,92.58-40.43,89.73-27.71,185.09-47,282.7-57.57l-19.85.3c-2.76,0-5.13-1.56-5.31-3.58s1.9-3.7,4.65-3.74c47-.73,94.89-1.35,143.39-1.51q54-1.7,108.18.21a6.75,6.75,0,0,1,1.95.35c91.38,1.34,184.3,5.16,277.36,13.66s181.7,21.52,263,38.66c90,19,174.26,43.64,250.26,73.29,41.55,16.21,88.42,36.95,121,67.87,16.35,15.51,27.9,33.27,33.41,51.34,6,19.58,4.34,38.52-4.69,54.78-20.52,36.93-74,55.43-112.39,66.14-104.91,29.22-219.12,37.67-317.94,43.29C2587.05,2089.47,2437.6,2089.83,2302.56,2080.24ZM2146.27,1677c-138.83,4.38-276,26.64-402,65.55-31.79,9.81-64.66,21.34-89.7,39.05-27,19.08-41.24,44.25-38.1,67.31,4.29,31.43,36.37,59.7,101,89,144.2,65.29,316,108.54,510.55,128.55,154.11,15.85,324.62,17.62,536.61,5.56,98.14-5.59,211.52-14,315.24-42.86,58.45-16.28,92.46-36.08,107-62.3,16.12-29,5.43-67.78-27.24-98.78-31.36-29.75-77-49.93-117.59-65.75-143.39-55.93-314.88-93.32-509.71-111.11C2402.16,1679.31,2272.13,1676.62,2146.27,1677Z" transform="translate(-1606 -1668.91)"/></svg>